<?xml version="1.0" encoding="utf-8"?>
<!-- Generator: Adobe Illustrator 22.0.0, SVG Export Plug-In . SVG Version: 6.00 Build 0)  -->
<svg version="1.1" id="Calque_1" xmlns="http://www.w3.org/2000/svg" xmlns:xlink="http://www.w3.org/1999/xlink" x="0px" y="0px"
	 viewBox="0 0 372.5 100" style="enable-background:new 0 0 372.5 100;" xml:space="preserve">
<style type="text/css">
	.st0{fill:#9B2729;}
	.st1{opacity:0.75;enable-background:new    ;}
	.st2{fill:none;stroke:#CF3139;stroke-width:1.2702;stroke-miterlimit:10;}
	.st3{opacity:0.75;}
</style>
<g>
	<path class="st0" d="M64.3,9.7c-3.3,2.3-7,4.4-10.3,6.8c-4-1.9-7.4-4.4-11.4-6.2c3-2.6,6.8-4.3,9.8-6.8C56.9,5.1,60.1,7.9,64.3,9.7
		z"/>
	<path class="st1" d="M50.9,18.3c-3.5,2.3-7.2,4.4-10.6,6.8c-4-1.7-7.2-4.2-11.1-5.9c3-2.9,7.1-4.6,10.3-7.3
		C43.4,13.8,47.1,16.1,50.9,18.3z"/>
	<path class="st1" d="M78.9,18c-2.9,2.7-6.7,4.5-10.1,6.8c-4.3-1.7-7.4-4.4-11.6-6.2c3-2.6,6.9-4.2,10.1-6.8
		C71.5,13.4,74.7,16.2,78.9,18z"/>
	<path class="st1" d="M65.3,26.5c-3.2,2.7-6.9,4.8-10.6,7c-3.7-2.3-7.5-4.4-11.4-6.5c3.3-2.6,7.3-4.4,10.6-7
		C57.9,22.1,61.4,24.6,65.3,26.5z"/>
	<path class="st1" d="M81.9,20c4,1.8,7.5,4.2,11.4,6.2c0.3,16.3-0.5,32,0,47.1c-3,2.5-7.4,5-10.6,6.5c0-15.6,0-31.2,0-46.8
		c-3.3-2.3-7.1-4.2-10.9-6.2C74.8,24.1,78.7,22.4,81.9,20z"/>
	<path class="st1" d="M37.2,26.8c-3.3,2.5-7.2,4.5-10.6,7c-3.8-1.9-7.4-4.1-11.1-6.2c3.2-2.6,7.1-4.4,10.3-7
		C29.8,22.4,33.2,25,37.2,26.8z"/>
	<path class="st0" d="M68.3,28.6c4.2,1.7,7.7,4,11.4,6.2c0,15.6,0,31.2,0,46.8c-3.1,2.6-6.8,4.6-10.6,6.4c0.6-14.9,0.1-31,0.3-46.3
		c-3.7-2-7.3-4.2-11.1-6.2C60.9,32.7,65,31.1,68.3,28.6z"/>
	<path class="st1" d="M51.9,35c-3.2,2.8-7.2,4.9-10.9,7.3c-3.8-2.3-7.7-4.5-11.7-6.8c3.6-2.3,7.1-4.7,10.9-6.8
		C44.4,30.7,47.7,33.3,51.9,35z"/>
	<path class="st1" d="M54.7,37.1c4,1.9,7.6,4.2,11.4,6.2c0,15.6,0,31.2,0,46.8c-3.7,1.8-7.6,4.7-10.9,5.9c0-15.2,0-30.4,0-45.6
		c-3.4-2.3-7.2-4.4-11.1-6.4C47.4,41.5,51.3,39.5,54.7,37.1z"/>
	<path class="st1" d="M148.5,30.2c0-2.6,1.4-3.5,3.5-3.5h9.1c5,0,9,2.4,9,8.2c0,4.7-3.3,8.2-9,8.2h-6.5v7.1c0,1.7-1.1,3-3,3
		s-3-1.2-3-3L148.5,30.2L148.5,30.2z M154.4,38.5h5.5c2.4,0,4.2-1.5,4.2-3.7c0-2.6-1.8-3.7-4.8-3.7h-4.9V38.5z"/>
	<path class="st1" d="M177.7,28c0.5-1.3,1.5-1.8,2.9-1.8h1.4c1.3,0,2.5,0.3,3.1,2.2l7.1,19.9c0.2,0.6,0.6,1.7,0.6,2.3
		c0,1.5-1.2,2.6-2.8,2.6c-1.3,0-2.3-0.4-2.7-1.7l-1.5-4.4h-9.5l-1.6,4.4c-0.4,1.1-1.2,1.7-2.6,1.7c-1.7,0-2.7-1-2.7-2.6
		c0-0.6,0.3-1.7,0.6-2.3L177.7,28z M181.3,32.6L181.3,32.6l-3.6,10.5h6.9L181.3,32.6z"/>
	<path class="st1" d="M207.2,26.1c6.8,0,10.5,4.3,10.5,6.8c0,1.7-0.9,2.7-2.7,2.7c-3.4,0-2.4-4.7-7.8-4.7c-3.7,0-6.8,3.2-6.8,8.8
		c0,4.7,1.9,8.8,7,8.8c4.6,0,4.5-5,7.4-5c1.5,0,2.9,0.9,2.9,2.3c0,3.7-4.5,7.5-10.3,7.5c-8.1,0-12.9-4.6-12.9-13.6
		C194.4,32.4,198.8,26.1,207.2,26.1z"/>
	<path class="st1" d="M221.3,29.1c0-1.7,1.1-3,3-3c1.8,0,3,1.2,3,3v8.6l9.3-10.3c0.7-0.7,1.3-1.3,2.4-1.3c1.4,0,2.8,0.9,2.8,2.4
		c0,0.9-0.4,1.5-1,2l-6,6.4l7.1,10.9c0.5,0.9,1.1,1.6,1.1,2.4c0,2.2-1.7,2.9-3,2.9c-1.2,0-1.8-0.3-2.6-1.6l-6.8-10.5l-3.2,3.2V50
		c0,1.7-1.1,3-3,3c-1.8,0-3-1.2-3-3L221.3,29.1L221.3,29.1z"/>
	<path class="st0" d="M252.4,31.7h-5.6c-1.7,0-3-0.9-3-2.5c0-1.7,1.4-2.5,3-2.5h17.1c1.7,0,3,0.9,3,2.5c0,1.7-1.4,2.5-3,2.5h-5.7
		v18.5c0,1.7-1.1,3-3,3c-1.8,0-3-1.2-3-3L252.4,31.7L252.4,31.7z"/>
	<path class="st0" d="M270.2,30.2c0-2.6,1.4-3.5,3.5-3.5h13.9c1.7,0,3,0.5,3,2.4c0,1.8-1.3,2.4-3,2.4h-11.4v5.7h10
		c1.6,0,2.8,0.4,2.8,2.3c0,1.8-1.2,2.3-2.8,2.3h-10v6.3h11.7c1.7,0,3,0.5,3,2.4c0,1.9-1.2,2.4-3,2.4h-14.2c-2.1,0-3.5-0.9-3.5-3.5
		L270.2,30.2L270.2,30.2z"/>
	<path class="st0" d="M306.6,26.1c6.8,0,10.5,4.3,10.5,6.8c0,1.7-0.9,2.7-2.7,2.7c-3.4,0-2.4-4.7-7.8-4.7c-3.7,0-6.8,3.2-6.8,8.8
		c0,4.7,1.8,8.8,7,8.8c4.6,0,4.5-5,7.4-5c1.5,0,2.9,0.9,2.9,2.3c0,3.7-4.5,7.5-10.3,7.5c-8.1,0-12.9-4.6-12.9-13.6
		C293.9,32.4,298.3,26.1,306.6,26.1z"/>
	<line class="st2" x1="319.5" y1="49.2" x2="354.7" y2="49.2"/>
	<line class="st2" x1="109.2" y1="49.2" x2="144.5" y2="49.2"/>
	<g class="st3">
		<g>
			<path d="M113.9,65.8l1.1,0.5c-0.2,1-0.4,1.7-0.9,2.2c-0.4,0.4-1,0.7-1.6,0.7c-0.8,0-1.5-0.4-1.9-1.2c-0.5-0.8-0.8-1.9-0.8-3.3
				c0-1.5,0.3-2.7,0.8-3.5c0.5-0.9,1.2-1.2,2-1.2c0.7,0,1.3,0.3,1.7,1c0.3,0.3,0.4,1,0.6,1.7l-1.2,0.4c-0.1-0.4-0.2-0.9-0.4-1.1
				c-0.3-0.3-0.5-0.4-0.8-0.4c-0.4,0-0.8,0.3-1,0.7c-0.3,0.4-0.4,1.2-0.4,2.4c0,1.1,0.2,1.9,0.4,2.4c0.3,0.5,0.6,0.7,1,0.7
				c0.3,0,0.6-0.2,0.8-0.4C113.5,66.9,113.8,66.5,113.9,65.8z"/>
			<path d="M119,67.1l1.1,0.3c-0.2,0.6-0.3,1.1-0.7,1.5c-0.3,0.3-0.7,0.5-1.2,0.5c-0.8,0-1.3-0.3-1.7-1.1c-0.3-0.6-0.4-1.3-0.4-2.3
				c0-1,0.2-1.9,0.5-2.5c0.3-0.6,0.9-1,1.4-1c0.6,0,1.1,0.3,1.5,1c0.3,0.6,0.5,1.7,0.5,3h-2.9c0,0.5,0.1,0.9,0.3,1.2
				c0.2,0.3,0.4,0.4,0.7,0.4c0.2,0,0.3-0.1,0.4-0.3C118.8,67.6,118.9,67.4,119,67.1z M119.1,65.4c0-0.5-0.1-0.9-0.3-1.1
				c-0.2-0.3-0.3-0.3-0.6-0.3c-0.3,0-0.4,0.2-0.6,0.4c-0.2,0.3-0.3,0.6-0.3,1.1L119.1,65.4L119.1,65.4z"/>
			<path d="M125.5,69.1h-1.1v-3.3c0-0.7,0-1.1-0.1-1.4c-0.1-0.2-0.1-0.3-0.3-0.5c-0.1-0.1-0.3-0.2-0.4-0.2s-0.3,0.1-0.5,0.3
				c-0.2,0.2-0.3,0.3-0.3,0.6c-0.1,0.3-0.1,0.8-0.1,1.5v3h-1.1v-6.5h1v1c0.3-0.7,0.9-1.1,1.4-1.1c0.3,0,0.5,0.1,0.7,0.2
				c0.2,0.2,0.3,0.3,0.4,0.5s0.2,0.4,0.3,0.7c0,0.3,0.1,0.7,0.1,1.1L125.5,69.1L125.5,69.1z"/>
			<path d="M129,62.6V64h-0.8v2.6c0,0.5,0,0.9,0,1s0.1,0.2,0.1,0.3c0.1,0.1,0.1,0.1,0.2,0.1s0.3-0.1,0.4-0.2L129,69
				c-0.3,0.2-0.5,0.3-0.9,0.3c-0.2,0-0.3-0.1-0.5-0.2c-0.2-0.1-0.3-0.3-0.3-0.4c-0.1-0.2-0.1-0.3-0.2-0.7c0-0.2,0-0.6,0-1.2v-2.9
				h-0.5v-1.4h0.5v-1.3l1.1-1v2.3h0.8V62.6z"/>
			<path d="M131.4,69.1h-1.1v-6.5h1v1c0.2-0.4,0.3-0.7,0.5-0.9c0.2-0.2,0.3-0.2,0.5-0.2c0.3,0,0.5,0.1,0.8,0.3l-0.3,1.5
				c-0.2-0.2-0.3-0.3-0.5-0.3s-0.3,0.1-0.4,0.2c-0.1,0.2-0.2,0.3-0.3,0.7c-0.1,0.3-0.1,1-0.1,2.2L131.4,69.1L131.4,69.1z"/>
			<path d="M136.4,67.1l1.1,0.3c-0.2,0.6-0.3,1.1-0.7,1.5c-0.3,0.3-0.7,0.5-1.2,0.5c-0.8,0-1.3-0.3-1.7-1.1
				c-0.3-0.6-0.4-1.3-0.4-2.3c0-1,0.2-1.9,0.5-2.5c0.3-0.6,0.9-1,1.4-1c0.6,0,1.1,0.3,1.5,1c0.3,0.6,0.5,1.7,0.5,3h-2.9
				c0,0.5,0.1,0.9,0.3,1.2c0.2,0.3,0.4,0.4,0.7,0.4c0.2,0,0.3-0.1,0.4-0.3C136.2,67.6,136.4,67.4,136.4,67.1z M136.5,65.4
				c0-0.5-0.1-0.9-0.3-1.1c-0.2-0.3-0.3-0.3-0.6-0.3s-0.4,0.2-0.6,0.4c-0.2,0.3-0.3,0.6-0.3,1.1L136.5,65.4L136.5,65.4z"/>
			<path d="M143,69.1v-7.5h-1.7v-1.5h4.7v1.5h-1.7v7.5H143z"/>
			<path d="M149.1,67.1l1.1,0.3c-0.2,0.6-0.3,1.1-0.7,1.5c-0.3,0.3-0.7,0.5-1.2,0.5c-0.8,0-1.3-0.3-1.7-1.1
				c-0.3-0.6-0.4-1.3-0.4-2.3c0-1,0.2-1.9,0.5-2.5c0.3-0.6,0.9-1,1.4-1c0.6,0,1.1,0.3,1.5,1c0.3,0.6,0.5,1.7,0.5,3h-2.9
				c0,0.5,0.1,0.9,0.3,1.2c0.2,0.3,0.4,0.4,0.7,0.4c0.2,0,0.3-0.1,0.4-0.3C149,67.6,149.1,67.4,149.1,67.1z M149.2,65.4
				c0-0.5-0.1-0.9-0.3-1.1c-0.2-0.3-0.3-0.3-0.6-0.3s-0.4,0.2-0.6,0.4c-0.2,0.3-0.3,0.6-0.3,1.1L149.2,65.4L149.2,65.4z"/>
			<path d="M155.4,64.6l-1.1,0.3c0-0.3-0.1-0.6-0.3-0.8c-0.2-0.2-0.3-0.3-0.5-0.3c-0.3,0-0.5,0.2-0.7,0.4c-0.2,0.3-0.3,0.8-0.3,1.5
				c0,0.8,0.1,1.3,0.3,1.7c0.2,0.3,0.4,0.4,0.7,0.4c0.2,0,0.4-0.1,0.5-0.3c0.2-0.2,0.3-0.5,0.3-1l1.1,0.3c-0.1,0.8-0.3,1.4-0.7,1.7
				c-0.3,0.4-0.8,0.6-1.3,0.6c-0.6,0-1.1-0.3-1.5-0.9c-0.3-0.6-0.5-1.4-0.5-2.5c0-1,0.2-1.9,0.5-2.5c0.3-0.6,0.9-0.9,1.6-0.9
				c0.5,0,1,0.2,1.2,0.5C155.1,63.4,155.3,63.9,155.4,64.6z"/>
			<path d="M157.9,60.2v3.3c0.3-0.6,0.8-1,1.3-1c0.3,0,0.5,0.1,0.7,0.3c0.2,0.2,0.3,0.3,0.4,0.5c0.1,0.3,0.2,0.5,0.3,0.8
				c0,0.3,0.1,0.7,0.1,1.3v3.8h-1.1v-3.5c0-0.7,0-1.1-0.1-1.3c0-0.2-0.1-0.3-0.3-0.4c-0.1-0.1-0.3-0.2-0.4-0.2s-0.3,0.1-0.5,0.2
				c-0.2,0.2-0.3,0.3-0.3,0.6c-0.1,0.3-0.1,0.7-0.1,1.2v3.3h-1.1v-9C156.6,60.2,157.9,60.2,157.9,60.2z"/>
			<path d="M166.2,69.1H165v-3.3c0-0.7,0-1.1-0.1-1.4c-0.1-0.2-0.1-0.3-0.3-0.5c-0.1-0.1-0.3-0.2-0.4-0.2s-0.3,0.1-0.5,0.3
				c-0.2,0.2-0.3,0.3-0.3,0.6c-0.1,0.3-0.1,0.8-0.1,1.5v3h-1.1v-6.5h1v1c0.3-0.7,0.9-1.1,1.4-1.1c0.3,0,0.5,0.1,0.7,0.2
				c0.2,0.2,0.3,0.3,0.4,0.5s0.2,0.4,0.3,0.7c0,0.3,0.1,0.7,0.1,1.1v4.3H166.2z"/>
			<path d="M167.8,61.7v-1.6h1.1v1.6H167.8z M167.8,69.1v-6.5h1.1v6.5H167.8z"/>
			<path d="M173.4,71.7v-3.3c-0.2,0.3-0.3,0.5-0.5,0.7c-0.3,0.2-0.4,0.3-0.7,0.3c-0.5,0-0.9-0.3-1.2-0.9c-0.3-0.6-0.5-1.6-0.5-2.6
				c0-1,0.2-1.8,0.5-2.4c0.3-0.6,0.8-0.9,1.3-0.9c0.3,0,0.5,0.1,0.8,0.3c0.2,0.2,0.4,0.4,0.5,0.9v-1h1v9
				C174.6,71.7,173.4,71.7,173.4,71.7z M173.4,65.8c0-0.7-0.1-1.1-0.3-1.5c-0.2-0.3-0.4-0.5-0.7-0.5s-0.5,0.2-0.7,0.5
				s-0.3,0.9-0.3,1.6c0,0.7,0.1,1.2,0.3,1.6c0.2,0.3,0.4,0.4,0.7,0.4s0.5-0.2,0.7-0.5C173.3,67,173.4,66.5,173.4,65.8z"/>
			<path d="M178.8,69.1v-1c-0.2,0.3-0.3,0.6-0.6,0.8s-0.5,0.3-0.8,0.3s-0.5-0.1-0.8-0.3c-0.3-0.2-0.4-0.4-0.5-0.8
				c-0.1-0.3-0.2-0.9-0.2-1.5v-4.1h1.1v3c0,1,0,1.5,0.1,1.7c0,0.2,0.1,0.3,0.3,0.5c0.1,0.1,0.3,0.2,0.4,0.2c0.2,0,0.3-0.1,0.5-0.3
				c0.2-0.2,0.3-0.3,0.3-0.6c0.1-0.3,0.1-0.8,0.1-1.7v-2.8h1.1V69L178.8,69.1L178.8,69.1z"/>
			<path d="M184,67.1l1.1,0.3c-0.2,0.6-0.3,1.1-0.7,1.5c-0.3,0.3-0.7,0.5-1.2,0.5c-0.8,0-1.3-0.3-1.7-1.1c-0.3-0.6-0.4-1.3-0.4-2.3
				c0-1,0.2-1.9,0.5-2.5c0.3-0.6,0.9-1,1.4-1c0.6,0,1.1,0.3,1.5,1c0.3,0.6,0.5,1.7,0.5,3h-2.9c0,0.5,0.1,0.9,0.3,1.2
				c0.2,0.3,0.4,0.4,0.7,0.4c0.2,0,0.3-0.1,0.4-0.3C183.9,67.6,184,67.4,184,67.1z M184.1,65.4c0-0.5-0.1-0.9-0.3-1.1
				c-0.2-0.3-0.3-0.3-0.6-0.3s-0.4,0.2-0.6,0.4c-0.2,0.3-0.3,0.6-0.3,1.1L184.1,65.4L184.1,65.4z"/>
			<path d="M193.3,69.1h-1v-1c-0.2,0.3-0.3,0.6-0.6,0.9c-0.3,0.3-0.5,0.3-0.7,0.3c-0.5,0-1-0.3-1.3-0.9c-0.3-0.6-0.5-1.5-0.5-2.5
				c0-1.1,0.2-1.9,0.5-2.5c0.3-0.6,0.8-0.9,1.3-0.9c0.5,0,0.9,0.3,1.2,0.9v-3.2h1.1V69.1z M190.3,65.7c0,0.7,0.1,1.2,0.2,1.5
				c0.2,0.4,0.4,0.7,0.8,0.7c0.3,0,0.5-0.2,0.7-0.5c0.2-0.3,0.3-0.9,0.3-1.5c0-0.8-0.1-1.3-0.3-1.7c-0.2-0.3-0.4-0.5-0.7-0.5
				s-0.5,0.2-0.7,0.5C190.3,64.6,190.3,65.1,190.3,65.7z"/>
			<path d="M197.3,67.1l1.1,0.3c-0.2,0.6-0.3,1.1-0.7,1.5c-0.3,0.3-0.7,0.5-1.2,0.5c-0.8,0-1.3-0.3-1.7-1.1
				c-0.3-0.6-0.4-1.3-0.4-2.3c0-1,0.2-1.9,0.5-2.5c0.3-0.6,0.9-1,1.4-1c0.6,0,1.1,0.3,1.5,1c0.3,0.6,0.5,1.7,0.5,3h-2.9
				c0,0.5,0.1,0.9,0.3,1.2c0.2,0.3,0.4,0.4,0.7,0.4c0.2,0,0.3-0.1,0.4-0.3C197.1,67.6,197.2,67.4,197.3,67.1z M197.4,65.4
				c0-0.5-0.1-0.9-0.3-1.1c-0.2-0.3-0.3-0.3-0.6-0.3c-0.3,0-0.4,0.2-0.6,0.4c-0.2,0.3-0.3,0.6-0.3,1.1L197.4,65.4L197.4,65.4z"/>
			<path d="M202.6,69.1v-9h1.1v9H202.6z"/>
			<path d="M205.3,60.2h1.1v1.2c0,0.5,0,0.9-0.1,1.2c-0.1,0.3-0.2,0.5-0.3,0.8c-0.2,0.3-0.3,0.4-0.6,0.5l-0.3-0.7
				c0.3-0.1,0.4-0.3,0.5-0.4c0.1-0.2,0.2-0.4,0.2-0.8h-0.5V60.2z"/>
			<path d="M210.6,67.1l1.1,0.3c-0.2,0.6-0.3,1.1-0.7,1.5c-0.3,0.3-0.7,0.5-1.2,0.5c-0.8,0-1.3-0.3-1.7-1.1
				c-0.3-0.6-0.4-1.3-0.4-2.3c0-1,0.2-1.9,0.5-2.5c0.3-0.6,0.9-1,1.4-1c0.6,0,1.1,0.3,1.5,1c0.3,0.6,0.5,1.7,0.5,3h-2.9
				c0,0.5,0.1,0.9,0.3,1.2c0.2,0.3,0.4,0.4,0.7,0.4c0.2,0,0.3-0.1,0.4-0.3C210.5,67.6,210.6,67.4,210.6,67.1z M210.6,65.4
				c0-0.5-0.1-0.9-0.3-1.1c-0.2-0.3-0.3-0.3-0.6-0.3s-0.4,0.2-0.6,0.4c-0.2,0.3-0.3,0.6-0.3,1.1L210.6,65.4L210.6,65.4z"/>
			<path d="M213.1,62.6h1v0.9c0.3-0.7,0.8-1,1.3-1c0.3,0,0.5,0.1,0.7,0.3c0.2,0.2,0.3,0.4,0.5,0.8c0.2-0.3,0.4-0.6,0.6-0.8
				c0.3-0.2,0.4-0.3,0.7-0.3c0.3,0,0.6,0.1,0.8,0.3c0.3,0.2,0.3,0.5,0.5,0.9c0.1,0.3,0.1,0.7,0.1,1.4v4.2h-1.1v-3.7
				c0-0.6,0-1-0.1-1.2c-0.1-0.3-0.3-0.3-0.5-0.3c-0.2,0-0.3,0.1-0.4,0.3c-0.2,0.2-0.3,0.3-0.3,0.6c-0.1,0.3-0.1,0.7-0.1,1.3v3.1
				h-1.1v-3.6c0-0.6,0-1-0.1-1.2c0-0.2-0.1-0.3-0.2-0.4c-0.1-0.1-0.2-0.2-0.3-0.2c-0.2,0-0.3,0.1-0.4,0.2c-0.2,0.2-0.3,0.3-0.3,0.6
				c-0.1,0.3-0.1,0.7-0.1,1.3V69h-1.1L213.1,62.6L213.1,62.6z"/>
			<path d="M220.9,69.1v-9h1.1v3.2c0.3-0.6,0.8-0.9,1.2-0.9c0.5,0,1,0.3,1.3,0.9c0.3,0.6,0.5,1.4,0.5,2.4c0,1.1-0.2,2-0.5,2.6
				c-0.3,0.6-0.8,0.9-1.3,0.9c-0.3,0-0.5-0.1-0.7-0.3c-0.3-0.2-0.4-0.4-0.6-0.8v1L220.9,69.1L220.9,69.1z M222.1,65.7
				c0,0.7,0.1,1.1,0.2,1.5c0.2,0.4,0.4,0.7,0.8,0.7c0.3,0,0.4-0.2,0.6-0.5c0.2-0.3,0.3-0.9,0.3-1.6c0-0.8-0.1-1.3-0.3-1.7
				c-0.2-0.3-0.4-0.5-0.7-0.5s-0.5,0.2-0.7,0.5C222.1,64.6,222.1,65.1,222.1,65.7z"/>
			<path d="M227.4,64.6l-1-0.3c0.1-0.6,0.3-1.1,0.6-1.4c0.3-0.3,0.7-0.4,1.3-0.4c0.5,0,0.9,0.1,1.1,0.3c0.3,0.2,0.4,0.4,0.5,0.7
				s0.2,0.8,0.2,1.6v2c0,0.6,0,1,0.1,1.3c0,0.3,0.1,0.5,0.2,0.9h-1.1c0-0.1-0.1-0.3-0.1-0.5c0-0.1,0-0.2,0-0.2
				c-0.2,0.3-0.4,0.5-0.6,0.6c-0.3,0.2-0.4,0.2-0.7,0.2c-0.4,0-0.8-0.2-1-0.5c-0.3-0.3-0.3-0.8-0.3-1.4c0-0.3,0.1-0.7,0.2-1
				s0.3-0.5,0.5-0.7c0.2-0.2,0.5-0.3,0.9-0.4c0.5-0.2,0.9-0.3,1.1-0.4v-0.2c0-0.3-0.1-0.6-0.2-0.7c-0.1-0.2-0.3-0.2-0.6-0.2
				c-0.2,0-0.3,0.1-0.4,0.2C227.5,64.1,227.5,64.3,227.4,64.6z M228.9,66c-0.2,0.1-0.3,0.2-0.7,0.3c-0.3,0.1-0.5,0.2-0.6,0.3
				c-0.2,0.2-0.3,0.3-0.3,0.6c0,0.3,0.1,0.4,0.2,0.6c0.1,0.2,0.3,0.3,0.4,0.3s0.4-0.1,0.6-0.3c0.2-0.2,0.3-0.3,0.3-0.6
				c0-0.2,0.1-0.4,0.1-0.9L228.9,66L228.9,66z"/>
			<path d="M231.6,69.1v-9h1.1v9H231.6z"/>
			<path d="M234.3,69.1v-9h1.1v9H234.3z"/>
			<path d="M237.9,64.6l-1-0.3c0.1-0.6,0.3-1.1,0.6-1.4c0.3-0.3,0.7-0.4,1.3-0.4c0.5,0,0.9,0.1,1.1,0.3c0.3,0.2,0.4,0.4,0.5,0.7
				c0.1,0.3,0.2,0.8,0.2,1.6v2c0,0.6,0,1,0.1,1.3c0,0.3,0.1,0.5,0.2,0.9h-1.1c0-0.1-0.1-0.3-0.1-0.5c0-0.1,0-0.2,0-0.2
				c-0.2,0.3-0.4,0.5-0.6,0.6c-0.3,0.2-0.4,0.2-0.7,0.2c-0.4,0-0.8-0.2-1-0.5c-0.3-0.3-0.3-0.8-0.3-1.4c0-0.3,0.1-0.7,0.2-1
				c0.1-0.3,0.3-0.5,0.5-0.7c0.2-0.2,0.5-0.3,0.9-0.4c0.5-0.2,0.9-0.3,1.1-0.4v-0.2c0-0.3-0.1-0.6-0.2-0.7c-0.1-0.2-0.3-0.2-0.6-0.2
				c-0.2,0-0.3,0.1-0.4,0.2C238.1,64.1,237.9,64.3,237.9,64.6z M239.4,66c-0.2,0.1-0.3,0.2-0.7,0.3c-0.3,0.1-0.5,0.2-0.6,0.3
				c-0.2,0.2-0.3,0.3-0.3,0.6c0,0.3,0.1,0.4,0.2,0.6c0.1,0.2,0.3,0.3,0.4,0.3c0.2,0,0.4-0.1,0.6-0.3c0.2-0.2,0.3-0.3,0.3-0.6
				c0-0.2,0.1-0.4,0.1-0.9L239.4,66L239.4,66z"/>
			<path d="M242,69.6l1.3,0.3c0,0.3,0.1,0.3,0.2,0.4c0.1,0.1,0.3,0.2,0.5,0.2c0.3,0,0.5-0.1,0.7-0.2c0.1-0.1,0.2-0.3,0.3-0.4
				c0-0.2,0.1-0.4,0.1-0.8v-1c-0.3,0.7-0.8,1-1.3,1c-0.6,0-1-0.3-1.4-1.1c-0.3-0.6-0.4-1.3-0.4-2.2c0-1.1,0.2-1.9,0.5-2.5
				c0.3-0.6,0.8-0.9,1.3-0.9c0.5,0,1,0.3,1.3,1v-1h1v5.8c0,0.8,0,1.3-0.1,1.7c-0.1,0.3-0.2,0.7-0.3,0.9c-0.2,0.3-0.3,0.3-0.6,0.5
				c-0.3,0.1-0.6,0.2-1,0.2c-0.7,0-1.2-0.2-1.6-0.6C242.2,70.7,242.1,70.2,242,69.6C242,69.7,242,69.6,242,69.6z M243,65.7
				c0,0.7,0.1,1.2,0.3,1.5c0.2,0.3,0.4,0.5,0.7,0.5c0.3,0,0.5-0.2,0.7-0.5c0.2-0.3,0.3-0.8,0.3-1.5c0-0.7-0.1-1.2-0.3-1.5
				c-0.2-0.3-0.4-0.5-0.7-0.5c-0.3,0-0.5,0.2-0.7,0.5C243.1,64.6,243,65.1,243,65.7z"/>
			<path d="M250.1,67.1l1.1,0.3c-0.2,0.6-0.3,1.1-0.7,1.5c-0.3,0.3-0.7,0.5-1.2,0.5c-0.8,0-1.3-0.3-1.7-1.1
				c-0.3-0.6-0.4-1.3-0.4-2.3c0-1,0.2-1.9,0.5-2.5c0.3-0.6,0.9-1,1.4-1c0.6,0,1.1,0.3,1.5,1c0.3,0.6,0.5,1.7,0.5,3h-2.9
				c0,0.5,0.1,0.9,0.3,1.2c0.2,0.3,0.4,0.4,0.7,0.4c0.2,0,0.3-0.1,0.4-0.3C249.9,67.6,250,67.4,250.1,67.1z M250.2,65.4
				c0-0.5-0.1-0.9-0.3-1.1c-0.2-0.3-0.3-0.3-0.6-0.3c-0.3,0-0.4,0.2-0.6,0.4c-0.2,0.3-0.3,0.6-0.3,1.1L250.2,65.4L250.2,65.4z"/>
			<path d="M257.9,67.1l1.1,0.3c-0.2,0.6-0.3,1.1-0.7,1.5c-0.3,0.3-0.7,0.5-1.2,0.5c-0.8,0-1.3-0.3-1.7-1.1
				c-0.3-0.6-0.4-1.3-0.4-2.3c0-1,0.2-1.9,0.5-2.5c0.3-0.6,0.9-1,1.4-1c0.6,0,1.1,0.3,1.5,1c0.3,0.6,0.5,1.7,0.5,3H256
				c0,0.5,0.1,0.9,0.3,1.2c0.2,0.3,0.4,0.4,0.7,0.4c0.2,0,0.3-0.1,0.4-0.3C257.8,67.6,257.9,67.4,257.9,67.1z M257.9,65.4
				c0-0.5-0.1-0.9-0.3-1.1c-0.2-0.3-0.3-0.3-0.6-0.3c-0.3,0-0.4,0.2-0.6,0.4c-0.2,0.3-0.3,0.6-0.3,1.1L257.9,65.4L257.9,65.4z"/>
			<path d="M262.4,62.6V64h-0.8v2.6c0,0.5,0,0.9,0,1s0.1,0.2,0.1,0.3c0.1,0.1,0.1,0.1,0.2,0.1s0.3-0.1,0.4-0.2l0.1,1.3
				c-0.3,0.2-0.5,0.3-0.9,0.3c-0.2,0-0.4-0.1-0.5-0.2c-0.2-0.1-0.3-0.3-0.3-0.4c-0.1-0.2-0.1-0.3-0.2-0.7c0-0.2,0-0.6,0-1.2v-2.9
				H260v-1.4h0.5v-1.3l1.1-1v2.3h0.8V62.6z"/>
			<path d="M270.3,69.1h-1v-1c-0.2,0.3-0.3,0.6-0.6,0.9c-0.3,0.2-0.5,0.3-0.7,0.3c-0.5,0-1-0.3-1.3-0.9s-0.5-1.5-0.5-2.5
				c0-1.1,0.2-1.9,0.5-2.5c0.3-0.6,0.8-0.9,1.3-0.9s0.9,0.3,1.2,0.9v-3.2h1.1L270.3,69.1L270.3,69.1z M267.3,65.7
				c0,0.7,0.1,1.2,0.2,1.5c0.2,0.4,0.4,0.7,0.8,0.7c0.3,0,0.5-0.2,0.7-0.5c0.2-0.3,0.3-0.9,0.3-1.5c0-0.8-0.1-1.3-0.3-1.7
				c-0.2-0.3-0.4-0.5-0.7-0.5c-0.3,0-0.5,0.2-0.7,0.5C267.4,64.6,267.3,65.1,267.3,65.7z"/>
			<path d="M274.8,69.1v-1c-0.2,0.3-0.3,0.6-0.6,0.8s-0.5,0.3-0.8,0.3c-0.3,0-0.5-0.1-0.8-0.3c-0.3-0.2-0.4-0.4-0.5-0.8
				c-0.1-0.3-0.2-0.9-0.2-1.5v-4.1h1.1v3c0,1,0,1.5,0.1,1.7s0.1,0.3,0.3,0.5c0.1,0.1,0.3,0.2,0.4,0.2c0.2,0,0.3-0.1,0.5-0.3
				c0.2-0.2,0.3-0.3,0.3-0.6c0.1-0.3,0.1-0.8,0.1-1.7v-2.8h1.1V69L274.8,69.1L274.8,69.1z"/>
			<path d="M284,65.8l1.1,0.5c-0.2,1-0.4,1.7-0.9,2.2s-1,0.7-1.6,0.7c-0.8,0-1.5-0.4-1.9-1.2c-0.5-0.8-0.8-1.9-0.8-3.3
				c0-1.5,0.3-2.7,0.8-3.5c0.5-0.9,1.2-1.2,2-1.2c0.7,0,1.3,0.3,1.7,1c0.3,0.3,0.4,1,0.6,1.7l-1.2,0.4c-0.1-0.4-0.2-0.9-0.4-1.1
				c-0.3-0.3-0.5-0.4-0.8-0.4c-0.4,0-0.8,0.3-1,0.7c-0.3,0.4-0.4,1.2-0.4,2.4c0,1.1,0.2,1.9,0.4,2.4c0.3,0.5,0.6,0.7,1,0.7
				c0.3,0,0.6-0.2,0.8-0.4C283.6,66.9,283.8,66.5,284,65.8z"/>
			<path d="M286.3,65.8c0-0.6,0.1-1.1,0.3-1.7c0.2-0.5,0.4-1,0.8-1.2s0.7-0.4,1.1-0.4c0.6,0,1.2,0.3,1.6,1c0.4,0.6,0.6,1.5,0.6,2.4
				s-0.2,1.8-0.6,2.4c-0.4,0.6-1,1-1.6,1c-0.4,0-0.8-0.2-1.1-0.4s-0.6-0.7-0.8-1.2C286.4,67.2,286.3,66.5,286.3,65.8z M287.5,65.9
				c0,0.6,0.1,1.1,0.3,1.5c0.2,0.3,0.4,0.5,0.8,0.5c0.3,0,0.5-0.2,0.8-0.5c0.2-0.3,0.3-0.9,0.3-1.5c0-0.6-0.1-1.1-0.3-1.5
				c-0.2-0.3-0.4-0.5-0.8-0.5c-0.3,0-0.5,0.2-0.8,0.5C287.6,64.8,287.5,65.3,287.5,65.9z"/>
			<path d="M296,69.1h-1.1v-3.3c0-0.7,0-1.1-0.1-1.4c-0.1-0.2-0.1-0.3-0.3-0.5c-0.1-0.1-0.3-0.2-0.4-0.2c-0.2,0-0.3,0.1-0.5,0.3
				c-0.2,0.2-0.3,0.3-0.3,0.6c-0.1,0.3-0.1,0.8-0.1,1.5v3H292v-6.5h1v1c0.3-0.7,0.9-1.1,1.4-1.1c0.3,0,0.5,0.1,0.7,0.2
				c0.2,0.2,0.3,0.3,0.4,0.5s0.2,0.4,0.3,0.7c0,0.3,0.1,0.7,0.1,1.1L296,69.1L296,69.1z"/>
			<path d="M301.6,69.1h-1v-1c-0.2,0.3-0.3,0.6-0.6,0.9c-0.3,0.2-0.5,0.3-0.7,0.3c-0.5,0-1-0.3-1.3-0.9s-0.5-1.5-0.5-2.5
				c0-1.1,0.2-1.9,0.5-2.5c0.3-0.6,0.8-0.9,1.3-0.9s0.9,0.3,1.2,0.9v-3.2h1.1L301.6,69.1L301.6,69.1z M298.5,65.7
				c0,0.7,0.1,1.2,0.2,1.5c0.2,0.4,0.4,0.7,0.8,0.7c0.3,0,0.5-0.2,0.7-0.5c0.2-0.3,0.3-0.9,0.3-1.5c0-0.8-0.1-1.3-0.3-1.7
				c-0.2-0.3-0.4-0.5-0.7-0.5c-0.3,0-0.5,0.2-0.7,0.5C298.6,64.6,298.5,65.1,298.5,65.7z"/>
			<path d="M303.1,61.7v-1.6h1.1v1.6H303.1z M303.1,69.1v-6.5h1.1v6.5H303.1z"/>
			<path d="M307.9,62.6V64h-0.8v2.6c0,0.5,0,0.9,0,1s0.1,0.2,0.1,0.3c0.1,0.1,0.1,0.1,0.2,0.1s0.3-0.1,0.4-0.2l0.1,1.3
				c-0.3,0.2-0.5,0.3-0.9,0.3c-0.2,0-0.3-0.1-0.5-0.2c-0.2-0.1-0.3-0.3-0.3-0.4c-0.1-0.2-0.1-0.3-0.2-0.7c0-0.2,0-0.6,0-1.2v-2.9
				h-0.5v-1.4h0.5v-1.3l1.1-1v2.3h0.8V62.6z"/>
			<path d="M309.1,61.7v-1.6h1.1v1.6H309.1z M309.1,69.1v-6.5h1.1v6.5H309.1z"/>
			<path d="M311.5,65.8c0-0.6,0.1-1.1,0.3-1.7c0.2-0.5,0.4-1,0.8-1.2s0.7-0.4,1.1-0.4c0.6,0,1.2,0.3,1.6,1c0.4,0.6,0.6,1.5,0.6,2.4
				s-0.2,1.8-0.6,2.4c-0.4,0.6-1,1-1.6,1c-0.4,0-0.8-0.2-1.1-0.4s-0.6-0.7-0.8-1.2C311.6,67.2,311.5,66.5,311.5,65.8z M312.7,65.9
				c0,0.6,0.1,1.1,0.3,1.5c0.2,0.3,0.4,0.5,0.8,0.5c0.3,0,0.5-0.2,0.8-0.5c0.2-0.3,0.3-0.9,0.3-1.5c0-0.6-0.1-1.1-0.3-1.5
				c-0.2-0.3-0.4-0.5-0.8-0.5c-0.3,0-0.5,0.2-0.8,0.5C312.8,64.8,312.7,65.3,312.7,65.9z"/>
			<path d="M321.2,69.1h-1.1v-3.3c0-0.7,0-1.1-0.1-1.4c-0.1-0.2-0.1-0.3-0.3-0.5c-0.1-0.1-0.3-0.2-0.4-0.2c-0.2,0-0.3,0.1-0.5,0.3
				c-0.2,0.2-0.3,0.3-0.3,0.6c-0.1,0.3-0.1,0.8-0.1,1.5v3h-1.1v-6.5h1v1c0.3-0.7,0.9-1.1,1.4-1.1c0.3,0,0.5,0.1,0.7,0.2
				c0.2,0.2,0.3,0.3,0.4,0.5s0.2,0.4,0.3,0.7c0,0.3,0.1,0.7,0.1,1.1L321.2,69.1L321.2,69.1z"/>
			<path d="M326.8,69.1h-1.1v-3.3c0-0.7,0-1.1-0.1-1.4c-0.1-0.2-0.1-0.3-0.3-0.5c-0.1-0.1-0.3-0.2-0.4-0.2c-0.2,0-0.3,0.1-0.5,0.3
				c-0.2,0.2-0.3,0.3-0.3,0.6c-0.1,0.3-0.1,0.8-0.1,1.5v3h-1.1v-6.5h1v1c0.3-0.7,0.9-1.1,1.4-1.1c0.3,0,0.5,0.1,0.7,0.2
				c0.2,0.2,0.3,0.3,0.4,0.5s0.2,0.4,0.3,0.7c0,0.3,0.1,0.7,0.1,1.1L326.8,69.1L326.8,69.1z"/>
			<path d="M330.8,67.1l1.1,0.3c-0.2,0.6-0.3,1.1-0.7,1.5s-0.7,0.5-1.2,0.5c-0.8,0-1.3-0.3-1.7-1.1c-0.3-0.6-0.4-1.3-0.4-2.3
				c0-1,0.2-1.9,0.5-2.5c0.3-0.6,0.9-1,1.4-1c0.6,0,1.1,0.3,1.5,1c0.3,0.6,0.5,1.7,0.5,3h-2.9c0,0.5,0.1,0.9,0.3,1.2
				c0.2,0.3,0.4,0.4,0.7,0.4c0.2,0,0.3-0.1,0.4-0.3C330.7,67.6,330.8,67.4,330.8,67.1z M330.9,65.4c0-0.5-0.1-0.9-0.3-1.1
				c-0.2-0.3-0.3-0.3-0.6-0.3s-0.4,0.2-0.6,0.4c-0.2,0.3-0.3,0.6-0.3,1.1L330.9,65.4L330.9,65.4z"/>
			<path d="M333.3,62.6h1v0.9c0.3-0.7,0.8-1,1.3-1c0.3,0,0.5,0.1,0.7,0.3c0.2,0.2,0.3,0.4,0.5,0.8c0.2-0.3,0.4-0.6,0.6-0.8
				c0.3-0.2,0.4-0.3,0.7-0.3c0.3,0,0.6,0.1,0.8,0.3c0.3,0.2,0.3,0.5,0.5,0.9c0.1,0.3,0.1,0.7,0.1,1.4v4.2h-1.1v-3.7
				c0-0.6,0-1-0.1-1.2c-0.1-0.3-0.3-0.3-0.5-0.3c-0.2,0-0.3,0.1-0.4,0.3c-0.2,0.2-0.3,0.3-0.3,0.6c-0.1,0.3-0.1,0.7-0.1,1.3v3.1
				h-1.1v-3.6c0-0.6,0-1-0.1-1.2c0-0.2-0.1-0.3-0.2-0.4c-0.1-0.1-0.2-0.2-0.3-0.2s-0.3,0.1-0.4,0.2c-0.2,0.2-0.3,0.3-0.3,0.6
				c-0.1,0.3-0.1,0.7-0.1,1.3V69h-1.1L333.3,62.6L333.3,62.6z"/>
			<path d="M343.7,67.1l1.1,0.3c-0.2,0.6-0.3,1.1-0.7,1.5s-0.7,0.5-1.2,0.5c-0.8,0-1.3-0.3-1.7-1.1c-0.3-0.6-0.4-1.3-0.4-2.3
				c0-1,0.2-1.9,0.5-2.5c0.3-0.6,0.9-1,1.4-1c0.6,0,1.1,0.3,1.5,1c0.3,0.6,0.5,1.7,0.5,3h-2.9c0,0.5,0.1,0.9,0.3,1.2
				c0.2,0.3,0.4,0.4,0.7,0.4c0.2,0,0.3-0.1,0.4-0.3C343.6,67.6,343.7,67.4,343.7,67.1z M343.8,65.4c0-0.5-0.1-0.9-0.3-1.1
				c-0.2-0.3-0.3-0.3-0.6-0.3s-0.4,0.2-0.6,0.4c-0.2,0.3-0.3,0.6-0.3,1.1L343.8,65.4L343.8,65.4z"/>
			<path d="M350.2,69.1h-1.1v-3.3c0-0.7,0-1.1-0.1-1.4c-0.1-0.2-0.1-0.3-0.3-0.5c-0.1-0.1-0.3-0.2-0.4-0.2c-0.2,0-0.3,0.1-0.5,0.3
				c-0.2,0.2-0.3,0.3-0.3,0.6c-0.1,0.3-0.1,0.8-0.1,1.5v3h-1.1v-6.5h1v1c0.3-0.7,0.9-1.1,1.4-1.1c0.3,0,0.5,0.1,0.7,0.2
				c0.2,0.2,0.3,0.3,0.4,0.5s0.2,0.4,0.3,0.7c0,0.3,0.1,0.7,0.1,1.1L350.2,69.1L350.2,69.1z"/>
			<path d="M353.8,62.6V64H353v2.6c0,0.5,0,0.9,0,1s0.1,0.2,0.1,0.3c0.1,0.1,0.1,0.1,0.2,0.1c0.1,0,0.3-0.1,0.4-0.2l0.1,1.3
				c-0.3,0.2-0.5,0.3-0.9,0.3c-0.2,0-0.3-0.1-0.5-0.2c-0.2-0.1-0.3-0.3-0.3-0.4c-0.1-0.2-0.2-0.3-0.2-0.7c0-0.2,0-0.6,0-1.2v-2.9
				h-0.5v-1.4h0.5v-1.3l1.1-1v2.3h0.8V62.6z"/>
		</g>
	</g>
</g>
</svg>
